/* XPM */
static char *ai2h7_2t6fz[] = {
/* columns rows colors chars-per-pixel */
"16 16 69 1 ",
"  c #145365",
". c #0E4E61",
"X c #0D4E60",
"o c #135365",
"O c #155365",
"+ c #175567",
"@ c #185668",
"# c #155466",
"$ c #135264",
"% c #165466",
"& c #165566",
"* c #115163",
"= c #0F4F62",
"- c #507F8C",
"; c #0B4C5F",
": c #0F4F61",
"> c #2E6676",
", c #BCCED3",
"< c #125264",
"1 c #B1C6CC",
"2 c #105062",
"3 c #3E7281",
"4 c #EDF2F3",
"5 c #0C4D60",
"6 c #05485B",
"7 c #04485B",
"8 c #286272",
"9 c #105063",
"0 c #DEE6E9",
"q c #376D7C",
"w c #03465A",
"e c #487987",
"r c #F1F5F6",
"t c #094B5E",
"y c #215C6D",
"u c #165567",
"i c #98B4BB",
"p c #C5D5D9",
"a c #E4EBED",
"s c #003B4F",
"d c #0A4C5E",
"f c #7096A1",
"g c #91AEB7",
"h c #0E4F61",
"j c #0F5062",
"k c #ECF1F2",
"l c #014559",
"z c #306877",
"x c #CEDBDF",
"c c #FDFDFD",
"v c #04475B",
"b c #83A4AD",
"n c #004255",
"m c #B0C5CB",
"M c #417482",
"N c #004356",
"B c #C8D7DB",
"V c #85A6AF",
"C c #004457",
"Z c #9CB6BE",
"A c #7A9DA8",
"S c #447684",
"D c #003C51",
"F c #8AA9B2",
"G c #C3D3D7",
"H c #A1BAC1",
"J c #5D8995",
"K c #D9E3E6",
"L c #CFDCDF",
/* pixels */
"                ",
"                ",
"      #&        ",
"     #h;# #     ",
"  #+#=zMju9o    ",
" #=w@lVBv*y&    ",
"#Xqg:nbGDSk>.#  ",
"#28aLCA,.cFd@   ",
" %5:pKZ,xHst;   ",
"  +*6iJ>m-e-3<  ",
"   ##7.Nfr041X# ",
"     +%%@%###   ",
"        o$$$$   ",
"         OOO    ",
"                ",
"                "
};
