/* XPM */
static char *a92u8_9386t[] = {
/* columns rows colors chars-per-pixel */
"32 32 120 2 ",
"   c #145365",
".  c #05485B",
"X  c #0E4F61",
"o  c #C5D4D9",
"O  c #165466",
"+  c #0C4D60",
"@  c #0E4E61",
"#  c white",
"$  c #175567",
"%  c #155466",
"&  c #094B5E",
"*  c #185668",
"=  c #185667",
"-  c #115163",
";  c #CAD8DC",
":  c #155365",
">  c #014559",
",  c #0B4D5F",
"<  c #07495C",
"1  c #195668",
"2  c #04475B",
"3  c #628C98",
"4  c #165566",
"5  c #165567",
"6  c #105062",
"7  c #175667",
"8  c #0D4E60",
"9  c #024659",
"0  c #084A5D",
"q  c #52808D",
"w  c #68909C",
"e  c #69919D",
"r  c #155465",
"t  c #04485B",
"y  c #195768",
"u  c #04475A",
"i  c #8DABB4",
"p  c #074A5D",
"a  c #7499A4",
"s  c #0F4F62",
"d  c #407482",
"f  c #0B4C5F",
"g  c #2F6777",
"h  c #A2BBC2",
"j  c #D1DEE1",
"k  c #427583",
"l  c #F4F7F8",
"z  c #2E6676",
"x  c #467886",
"c  c #C2D2D7",
"v  c #FDFDFD",
"b  c #D4DFE3",
"n  c #7096A1",
"m  c #03475A",
"M  c #588591",
"N  c #6E95A0",
"B  c #135265",
"V  c #3B707E",
"C  c #95B2BA",
"Z  c #6B939E",
"A  c #135365",
"S  c #0A4B5E",
"D  c #135264",
"F  c #7499A3",
"G  c #125163",
"H  c #B0C5CB",
"J  c #B8CBD0",
"K  c #C4D4D9",
"L  c #125164",
"P  c #D7E2E5",
"I  c #0F5062",
"U  c #205C6D",
"Y  c #376C7C",
"T  c #F3F6F7",
"R  c #D4DFE2",
"E  c #286272",
"W  c #7C9FA9",
"Q  c #779BA5",
"!  c #A4BCC3",
"~  c #C6D6DA",
"^  c #DFE7EA",
"/  c #69919C",
"(  c #6C949F",
")  c #C0D1D5",
"_  c #2C6474",
"`  c #276171",
"'  c #C7D6DA",
"]  c #618B98",
"[  c #EBF0F1",
"{  c #5F8A96",
"}  c #004457",
"|  c #266071",
" . c #0D4E61",
".. c #FCFDFD",
"X. c #C4D4D8",
"o. c #487987",
"O. c #D3DFE2",
"+. c #9FB9C0",
"@. c #467785",
"#. c #1A5769",
"$. c #06495C",
"%. c #06485C",
"&. c #336A79",
"*. c #85A5AF",
"=. c #658E9A",
"-. c #FDFEFE",
";. c #598692",
":. c #004357",
">. c #E1E9EB",
",. c #8AAAB3",
"<. c #004054",
"1. c #125264",
"2. c #6D949F",
"3. c #C9D8DC",
"4. c #003B50",
"5. c #396E7D",
"6. c #386D7D",
"7. c #CBD9DD",
"8. c #67909B",
"9. c #51808D",
/* pixels */
"                                                                ",
"                                                                ",
"                                                                ",
"                                                                ",
"                                                                ",
"                                                                ",
"                                                                ",
"                          $ * %                                 ",
"                          < > X %                               ",
"                      : - N C V 8 O     % O                     ",
"            $ :       % @ P # w u =   4 s X $                   ",
"          O & A O     % X ' # ] . $ $ , z g . $                 ",
"        r 0 q $ @ $   % @ ; # 3 . y G B b l d + O               ",
"      $ & Z # J $ , 1 r @ ; # 3 %.y 0 H # v x f 4               ",
"      5 S F # # R _ < #.@ ; # 3 & $.i # # M > =                 ",
"        5 9 q T # [ @.u 1.; # 8.4.2.# # W 9 *                   ",
"          * . Y ^ # ..=.<.3.# 9.6.# # +.t $                     ",
"            1 & U o # # *.7.# ,.>.# X.- $ 1 7 7 = O             ",
"              = X 6 ! # o &.5.;.-.O. .} < 2 2 t m , %           ",
"                $ L & Q ` 2 X :.o.i { ( / e e w n k @ %         ",
"                  % O . - $ $ - | # # # # # # # # h > *         ",
"                      $ %   % I E ) ~ K o o o c j a p $         ",
"                                D 8 + + + + + + + 6 :           ",
"                                  % O O O O O % O %             ",
"                                                                ",
"                                                                ",
"                                                                ",
"                                                                ",
"                                                                ",
"                                                                ",
"                                                                ",
"                                                                "
};
