/* XPM */
static char *aacvy_d3z24[] = {
/* columns rows colors chars-per-pixel */
"64 64 187 2 ",
"   c #145365",
".  c #165466",
"X  c #0A4C5E",
"o  c #F8FAFA",
"O  c #155466",
"+  c #03475A",
"@  c #04475B",
"#  c white",
"$  c #185667",
"%  c #175567",
"&  c #FBFCFC",
"*  c #165566",
"=  c #97B3BB",
"-  c #A2BBC2",
";  c #F8FAFB",
":  c #07495C",
">  c #C2D2D6",
",  c #B3C8CE",
"<  c #185668",
"1  c #FCFDFD",
"2  c #FBFCFD",
"3  c #05485B",
"4  c #135264",
"5  c #FDFEFE",
"6  c #0F4F62",
"7  c #084A5D",
"8  c #0D4E60",
"9  c #FEFEFE",
"0  c #105062",
"q  c #06495C",
"w  c #024659",
"e  c #115163",
"r  c #155365",
"t  c #195668",
"y  c #195768",
"u  c #0D4E61",
"i  c #0C4D60",
"p  c #165567",
"a  c #0E4F61",
"s  c #FAFCFC",
"d  c #04475A",
"f  c #094B5E",
"g  c #155465",
"h  c #0E4E61",
"j  c #0F5062",
"k  c #245F70",
"l  c #03465A",
"z  c #125164",
"x  c #94B1B9",
"c  c #105063",
"v  c #FDFEFD",
"b  c #336A79",
"n  c #96B2BA",
"m  c #80A2AC",
"M  c #014559",
"N  c #074A5D",
"B  c #05485C",
"V  c #E7EEEF",
"C  c #A8C0C6",
"Z  c #FAFBFC",
"A  c #608B97",
"S  c #B5C9CE",
"D  c #E0E9EB",
"F  c #5D8895",
"G  c #346A7A",
"H  c #507F8C",
"J  c #F9FBFB",
"K  c #235E6F",
"L  c #F6F8F9",
"P  c #C1D2D6",
"I  c #1B5869",
"U  c #3E7280",
"Y  c #5E8996",
"T  c #A4BCC3",
"R  c #82A3AD",
"E  c #A6BEC4",
"W  c #84A5AE",
"Q  c #135365",
"!  c #81A2AC",
"~  c #1D596A",
"^  c #C6D5D9",
"/  c #5F8A97",
"(  c #E8EFF0",
")  c #A5BDC4",
"_  c #628C98",
"`  c #135265",
"'  c #084B5E",
"]  c #004558",
"[  c #175667",
"{  c #CDDADD",
"}  c #0B4D60",
"|  c #B6CACF",
" . c #C2D2D7",
".. c #B9CCD1",
"X. c #DEE7E9",
"o. c #FEFFFF",
"O. c #568491",
"+. c #C8D6DB",
"@. c #2B6374",
"#. c #427483",
"$. c #205B6D",
"%. c #0B4C5F",
"&. c #0A4C5F",
"*. c #447684",
"=. c #7DA0A9",
"-. c #386D7D",
";. c #E3EAEC",
":. c #FAFBFB",
">. c #80A2AB",
",. c #487987",
"<. c #296272",
"1. c #4C7C89",
"2. c #F5F7F8",
"3. c #BFD0D4",
"4. c #084A5E",
"5. c #D5E0E3",
"6. c #014558",
"7. c #EDF2F3",
"8. c #7297A2",
"9. c #F1F5F5",
"0. c #3C707F",
"q. c #326978",
"w. c #ECF1F2",
"e. c #D3DFE2",
"r. c #215C6D",
"t. c #396E7E",
"y. c #125163",
"u. c #2A6373",
"i. c #1E5B6C",
"p. c #C5D5D8",
"a. c #E4EBED",
"s. c #266071",
"d. c #3D7180",
"f. c #1E5A6B",
"g. c #98B4BC",
"h. c #BECFD3",
"j. c #1E5A6C",
"k. c #245F6F",
"l. c #306877",
"z. c #3A6F7E",
"x. c #C3D3D7",
"c. c #98B3BB",
"v. c #A4BDC3",
"b. c #F3F6F7",
"n. c #376C7B",
"m. c #B3C7CD",
"M. c #F7F9FA",
"N. c #C1D1D6",
"B. c #A1BAC1",
"V. c #255F70",
"C. c #B6CAD0",
"Z. c #F4F7F7",
"A. c #FDFDFE",
"S. c #0A4B5E",
"D. c #BDCFD4",
"F. c #1A5769",
"G. c #98B4BB",
"H. c #FCFCFD",
"J. c #1B586A",
"K. c #FEFEFF",
"L. c #0A4B5F",
"P. c #326979",
"I. c #9AB5BC",
"U. c #598592",
"Y. c #7DA0AA",
"T. c #265F70",
"R. c #004054",
"E. c #BDCED3",
"W. c #D4DFE2",
"Q. c #386D7C",
"!. c #CBD9DD",
"~. c #ADC3C9",
"^. c #4B7B89",
"/. c #115063",
"(. c #1C596A",
"). c #4A7A88",
"_. c #618B97",
"`. c #85A6AF",
"'. c #7499A3",
"]. c #003D52",
"[. c #06485C",
"{. c #00394F",
"}. c #ACC2C8",
"|. c #B1C6CC",
" X c #F5F8F9",
".X c #9FB8C0",
"XX c #B5C9CF",
/* pixels */
"                                                                                                                                ",
"                                                                                                                                ",
"                                                                                                                                ",
"                                                                                                                                ",
"                                                                                                                                ",
"                                                                                                                                ",
"                                                                                                                                ",
"                                                                                                                                ",
"                                                                                                                                ",
"                                                                                                                                ",
"                                                                                                                                ",
"                                                                                                                                ",
"                                                                                                                                ",
"                                                                                                                                ",
"                                                                                                                                ",
"                                                                                                                                ",
"                                                    r O O O g                                                                   ",
"                                                    y.0 c 0 e                                                                   ",
"                                                  4 f.V.K k.i.4                                                                 ",
"                                                % 3 c.v V & C 7 %                                                               ",
"                                                $ d v.# 1 # C.q %                                                               ",
"                                                $ @ B.# M.# m.: %                 * %                                           ",
"                                                $ @ - # o # , : %               . %.' . g                                       ",
"                        O O O                   $ @ - # o # , : %             < M =.>.] O O                                     ",
"                      O j 8 c %                 $ @ - # o # , : %           t @ O.# # x 7 e O                                   ",
"                    t 6.8.3.. } <               $ @ - # o # , : %         $ f -.:.# s # ..% 4 r                                 ",
"                  [ l ,.# # 5.@.: y             $ @ - # o # , : %       p a $.;.# 1 s # | e                                     ",
"                . u 0.9.# ; # 7.*.l <           $ @ - # o # , : %     O Q 6 ^ # & 2 # { 6 0 O                                   ",
"                % 7 A # # 1 2 # # _ w % O       $ @ - # o # , : %     % 3 T # & 1 # ( k u %                                     ",
"                  % 3 1.2.# & 1 # # W 3 ` p     $ @ - # o # , : %   < w m # 2 5 # v U 7 <                                       ",
"                    $ 3 q.X.# & 5 5 # ) a 6 $   $ @ - # o # , : % y d F # 9 9 9 # Y + t                                         ",
"                      < &.~  .# 2 9 2 # p.j.S.t % @ - # o # , q I 7 d.1 # 5 2 # R w <                                           ",
"                        $ 6 h - # 9 5 & # D G 3 (.@ - # o # , f /.K V # 1 & # E B %                                             ",
"                          p   3 ! # # 1 & # L H [.7 - # o # XXB   !.# & & # +.j 4 O                                             ",
"                            O % w / o.# 2 1 # # '.{..X#  X# |.].~.# & 1 # a.r.a %                                               ",
"                                < + #.w.# & A.# # `.}.# # # S m # H.5 # s z.f $                                                 ",
"                                  y N <.e.# & Z # D ).A F _.^.W.# J K.# U.@ y                                                   ",
"                                    < i O S # # Z.P.M N q q q J.D.# # Y.@ I . * * * * * * * * * * * .                           ",
"                                      % e 4.n # H @ F.% % % < 6 L.C I.R.8 X X X X X X X X X X X X X X 4                         ",
"                                        . 4 h t.8 *           % i T.E.P > P > > > > > > > > > > N.x.h.u.6 O                     ",
"                                          O O i .             . u Q.# # # # # # # # # # # # # # # # # b 8 .                     ",
"                                              .               . 8 G L J o ; ; ; ; ; ; ; ; ; ; ; o Z b.l.u .                     ",
"                                                              . i n.# # # # # # # # # # # # # # # # # b 8 .                     ",
"                                                              O 0 s.n G.= = = = = = = = = = = = = g.x k 0 O                     ",
"                                                                r z + + + + + + + + + + + + + + + + d z                         ",
"                                                                  r $ $ $ $ $ $ $ $ $ $ $ $ $ $ $ $ $                           ",
"                                                                                                                                ",
"                                                                                                                                ",
"                                                                                                                                ",
"                                                                                                                                ",
"                                                                                                                                ",
"                                                                                                                                ",
"                                                                                                                                ",
"                                                                                                                                ",
"                                                                                                                                ",
"                                                                                                                                ",
"                                                                                                                                ",
"                                                                                                                                ",
"                                                                                                                                ",
"                                                                                                                                ",
"                                                                                                                                ",
"                                                                                                                                ",
"                                                                                                                                ",
"                                                                                                                                "
};
